<?xml version="1.0" standalone="no"?>
<!DOCTYPE svg PUBLIC "-//W3C//DTD SVG 20010904//EN"
 "http://www.w3.org/TR/2001/REC-SVG-20010904/DTD/svg10.dtd">
<svg version="1.0" xmlns="http://www.w3.org/2000/svg"
 width="204.000000pt" height="192.000000pt" viewBox="0 0 204.000000 192.000000"
 preserveAspectRatio="xMidYMid meet">
<metadata>
Created by potrace 1.10, written by Peter Selinger 2001-2011
</metadata>
<g transform="translate(0.000000,192.000000) scale(0.100000,-0.100000)"
fill="#000000" stroke="none">
<path d="M865 1300 c-71 -33 -131 -66 -133 -74 -3 -16 60 -48 210 -108 l78
-31 112 47 c161 68 149 67 142 12 -6 -38 -4 -46 10 -46 13 0 16 11 18 55 1 30
2 62 2 71 1 18 -227 124 -279 130 -20 2 -73 -17 -160 -56z m248 -3 c175 -80
165 -74 137 -85 -14 -6 -63 -27 -110 -47 -114 -50 -124 -51 -183 -25 -81 34
-177 81 -177 85 0 4 42 24 150 72 70 32 73 32 103 28 15 -3 51 -15 80 -28z"/>
<path d="M980 1283 c0 -5 19 -17 42 -29 23 -12 43 -25 45 -31 3 -8 -65 -47
-77 -44 -2 1 -3 19 -1 40 2 40 -15 64 -29 41 -7 -12 -4 -39 7 -70 4 -8 5 -18
5 -22 -4 -20 57 -5 87 20 30 25 32 30 21 49 -19 30 -101 67 -100 46z"/>
<path d="M822 1060 c3 -40 11 -70 25 -88 20 -28 20 -28 2 -65 -22 -42 -17 -45
28 -17 30 18 35 18 67 5 123 -52 268 35 277 165 4 72 1 73 -105 25 -43 -19
-85 -35 -95 -35 -10 0 -53 16 -95 35 -107 49 -109 48 -104 -25z m121 -10 c10
0 16 -3 13 -8 -6 -10 101 -15 117 -5 14 9 74 32 100 38 11 3 17 -2 17 -14 0
-27 -21 -81 -31 -81 -5 0 -8 -3 -8 -7 3 -20 -2 -26 -11 -13 -8 13 -10 13 -10
-2 0 -21 -46 -47 -91 -52 -18 -2 -58 4 -89 12 -55 15 -57 17 -78 69 -12 29
-22 60 -22 67 0 20 31 25 55 9 11 -7 28 -13 38 -13z"/>
<path d="M687 772 c-23 -25 -21 -68 3 -92 57 -57 148 22 98 85 -24 31 -77 34
-101 7z m83 -17 c15 -18 6 -61 -16 -69 -18 -7 -49 8 -57 28 -8 19 20 56 42 56
10 0 24 -7 31 -15z"/>
<path d="M830 725 c0 -74 17 -89 22 -19 l3 46 32 -46 c18 -25 37 -46 43 -46 6
0 10 27 10 65 0 37 -4 65 -10 65 -5 0 -10 -18 -10 -40 0 -22 -3 -40 -8 -40 -4
0 -18 18 -32 40 -37 59 -50 52 -50 -25z"/>
<path d="M970 725 l0 -65 40 0 c29 0 40 4 40 15 0 11 -7 14 -25 9 -24 -6 -25
-5 -25 50 0 43 -3 56 -15 56 -12 0 -15 -14 -15 -65z"/>
<path d="M1070 725 c0 -51 3 -65 15 -65 12 0 15 14 15 65 0 51 -3 65 -15 65
-12 0 -15 -14 -15 -65z"/>
<path d="M1130 725 c0 -47 4 -65 13 -65 9 0 12 11 9 34 -7 57 2 60 36 12 18
-25 37 -46 43 -46 5 0 9 29 9 65 0 72 -17 90 -22 23 l-3 -43 -30 42 c-43 61
-55 56 -55 -22z"/>
<path d="M1275 725 l0 -65 48 0 c32 0 47 4 47 13 0 9 -11 12 -35 9 -31 -4 -35
-1 -35 18 0 19 4 22 30 18 20 -3 30 0 30 9 0 8 -12 13 -30 13 -20 0 -30 5 -30
15 0 10 11 15 35 15 19 0 35 5 35 10 0 6 -21 10 -48 10 l-47 0 0 -65z"/>
<path d="M700 585 c0 -32 3 -35 28 -34 16 1 20 3 10 6 -10 2 -18 9 -18 14 0 5
8 9 18 10 14 0 14 2 -3 9 -17 7 -17 9 -2 9 27 1 20 21 -8 21 -22 0 -25 -4 -25
-35z"/>
<path d="M770 584 c0 -32 2 -35 26 -32 56 6 53 68 -2 68 -21 0 -24 -5 -24 -36z
m48 -1 c-5 -25 -28 -28 -28 -4 0 12 6 21 16 21 9 0 14 -7 12 -17z"/>
<path d="M850 601 c0 -34 12 -51 35 -51 23 0 35 17 35 51 0 29 -18 22 -22 -8
-4 -34 -22 -33 -26 2 -4 29 -22 34 -22 6z"/>
<path d="M941 606 c-19 -23 -4 -56 25 -56 13 0 24 4 24 9 0 5 -8 8 -17 7 -10
0 -19 7 -21 17 -3 14 1 18 17 15 11 -2 21 2 23 7 5 16 -38 17 -51 1z"/>
<path d="M1021 589 c-6 -18 -11 -32 -11 -33 0 -1 15 -1 34 -2 l34 0 -16 33
c-20 41 -27 41 -41 2z"/>
<path d="M1080 610 c0 -5 5 -10 10 -10 6 0 10 -11 10 -25 0 -14 5 -25 10 -25
6 0 10 11 10 25 0 14 5 25 10 25 6 0 10 5 10 10 0 6 -13 10 -30 10 -16 0 -30
-4 -30 -10z"/>
<path d="M1150 585 c0 -19 5 -35 10 -35 6 0 10 16 10 35 0 19 -4 35 -10 35 -5
0 -10 -16 -10 -35z"/>
<path d="M1200 605 c-20 -25 -8 -50 25 -50 21 0 31 5 33 18 4 21 -14 47 -33
47 -7 0 -18 -7 -25 -15z"/>
<path d="M1280 587 c0 -20 5 -37 11 -37 6 0 9 6 6 14 -3 8 -1 17 6 19 8 3 7
10 -5 23 -17 18 -18 17 -18 -19z"/>
<path d="M1325 600 c4 -11 2 -20 -4 -20 -6 0 -8 -7 -5 -15 11 -27 24 -16 24
20 0 19 -5 35 -11 35 -6 0 -8 -9 -4 -20z"/>
</g>
</svg>
